<svg xmlns="http://www.w3.org/2000/svg" viewBox="0 0 128 128">
  <rect x="1" y="1" width="126" height="126" rx="28" fill="#0E1116" stroke="#2A3340" stroke-width="2"/>
  <!-- taskling: pixel kobold, 7x6 grid, cell 12, gap 2, origin (15,22) -->
  <g fill="#8B97A7">
    <!-- y0 ears -->
    <rect x="43" y="22" width="12" height="12" rx="3"/>
    <rect x="71" y="22" width="12" height="12" rx="3"/>
    <!-- y1 head top -->
    <rect x="29" y="36" width="12" height="12" rx="3"/>
    <rect x="43" y="36" width="12" height="12" rx="3"/>
    <rect x="57" y="36" width="12" height="12" rx="3"/>
    <rect x="71" y="36" width="12" height="12" rx="3"/>
    <rect x="85" y="36" width="12" height="12" rx="3"/>
    <!-- y2 eye row -->
    <rect x="15" y="50" width="12" height="12" rx="3"/>
    <rect x="29" y="50" width="12" height="12" rx="3"/>
    <rect x="57" y="50" width="12" height="12" rx="3"/>
    <rect x="99" y="50" width="12" height="12" rx="3"/>
    <!-- y3 body -->
    <rect x="15" y="64" width="12" height="12" rx="3"/>
    <rect x="29" y="64" width="12" height="12" rx="3"/>
    <rect x="43" y="64" width="12" height="12" rx="3"/>
    <rect x="57" y="64" width="12" height="12" rx="3"/>
    <rect x="71" y="64" width="12" height="12" rx="3"/>
    <rect x="85" y="64" width="12" height="12" rx="3"/>
    <rect x="99" y="64" width="12" height="12" rx="3"/>
    <!-- y4 legs -->
    <rect x="29" y="78" width="12" height="12" rx="3"/>
    <rect x="57" y="78" width="12" height="12" rx="3"/>
    <rect x="85" y="78" width="12" height="12" rx="3"/>
    <!-- y5 feet -->
    <rect x="15" y="92" width="12" height="12" rx="3"/>
    <rect x="99" y="92" width="12" height="12" rx="3"/>
  </g>
  <!-- eyes: ready green -->
  <rect x="43" y="50" width="12" height="12" rx="3" fill="#3FB950"/>
  <rect x="85" y="50" width="12" height="12" rx="3" fill="#3FB950"/>
</svg>
