<svg xmlns="http://www.w3.org/2000/svg" viewBox="0 0 570 128">
  <rect x="1" y="1" width="126" height="126" rx="28" fill="#0E1116" stroke="#2A3340" stroke-width="2"/>
  
  <!-- taskling: pixel kobold, 7x6 grid, cell 12, gap 2, origin (15,22) -->
  <g fill="#8B97A7">
    <!-- y0 ears -->
    <rect x="43" y="22" width="12" height="12" rx="3"/>
    <rect x="71" y="22" width="12" height="12" rx="3"/>
    <!-- y1 head top -->
    <rect x="29" y="36" width="12" height="12" rx="3"/>
    <rect x="43" y="36" width="12" height="12" rx="3"/>
    <rect x="57" y="36" width="12" height="12" rx="3"/>
    <rect x="71" y="36" width="12" height="12" rx="3"/>
    <rect x="85" y="36" width="12" height="12" rx="3"/>
    <!-- y2 eye row -->
    <rect x="15" y="50" width="12" height="12" rx="3"/>
    <rect x="29" y="50" width="12" height="12" rx="3"/>
    <rect x="57" y="50" width="12" height="12" rx="3"/>
    <rect x="99" y="50" width="12" height="12" rx="3"/>
    <!-- y3 body -->
    <rect x="15" y="64" width="12" height="12" rx="3"/>
    <rect x="29" y="64" width="12" height="12" rx="3"/>
    <rect x="43" y="64" width="12" height="12" rx="3"/>
    <rect x="57" y="64" width="12" height="12" rx="3"/>
    <rect x="71" y="64" width="12" height="12" rx="3"/>
    <rect x="85" y="64" width="12" height="12" rx="3"/>
    <rect x="99" y="64" width="12" height="12" rx="3"/>
    <!-- y4 legs -->
    <rect x="29" y="78" width="12" height="12" rx="3"/>
    <rect x="57" y="78" width="12" height="12" rx="3"/>
    <rect x="85" y="78" width="12" height="12" rx="3"/>
    <!-- y5 feet -->
    <rect x="15" y="92" width="12" height="12" rx="3"/>
    <rect x="99" y="92" width="12" height="12" rx="3"/>
  </g>
  <!-- eyes: ready green -->
  <rect x="43" y="50" width="12" height="12" rx="3" fill="#3FB950"/>
  <rect x="85" y="50" width="12" height="12" rx="3" fill="#3FB950"/>

  <g transform="translate(156 7.380000000000003) scale(0.076)">
    <path fill="#D6DEE8" data-ch="t" d="M355.0 1020Q278.0 1020 232.5 975.5Q187.0 931 187.0 855V583H35.0V470H187.0V315H313.0V470H532.0V583H313.0V852Q313.0 876 326.5 891.5Q340.0 907 364.0 907H527.0V1020Z"/>
    <path fill="#D6DEE8" data-ch="a" d="M839.0 1030Q755.0 1030 706.5 982.5Q658.0 935 658.0 858Q658.0 778 713.0 730.5Q768.0 683 864.0 683H998.0V644Q998.0 561 901.0 561Q857.0 561 831.0 578.0Q805.0 595 802.0 626H682.0Q686.0 552 744.5 506.0Q803.0 460 902.0 460Q1007.0 460 1065.0 509.0Q1123.0 558 1123.0 647V1020H1001.0V917Q994.0 970 951.0 1000.0Q908.0 1030 839.0 1030ZM879.0 928Q934.0 928 966.0 901.0Q998.0 874 998.0 829V764H870.0Q829.0 764 805.0 787.0Q781.0 810 781.0 846Q781.0 883 806.5 905.5Q832.0 928 879.0 928Z"/>
    <path fill="#D6DEE8" data-ch="s" d="M1477.0 1029Q1379.0 1029 1322.0 984.5Q1265.0 940 1265.0 864H1388.0Q1388.0 896 1411.5 913.0Q1435.0 930 1477.0 930H1521.0Q1566.0 930 1590.5 913.0Q1615.0 896 1615.0 864Q1615.0 834 1598.0 819.5Q1581.0 805 1546.0 800L1409.0 782Q1343.0 773 1307.5 731.0Q1272.0 689 1272.0 622Q1272.0 544 1324.0 502.5Q1376.0 461 1474.0 461H1520.0Q1612.0 461 1668.0 503.0Q1724.0 545 1726.0 615H1602.0Q1601.0 589 1579.0 573.5Q1557.0 558 1520.0 558H1474.0Q1434.0 558 1413.0 574.5Q1392.0 591 1392.0 619Q1392.0 644 1407.5 656.0Q1423.0 668 1453.0 671L1582.0 689Q1658.0 698 1696.5 742.5Q1735.0 787 1735.0 862Q1735.0 942 1680.5 985.5Q1626.0 1029 1521.0 1029Z"/>
    <path fill="#4DA3FF" data-ch="k" d="M1882.0 1020V290H2007.0V686H2095.0L2226.0 470H2365.0L2202.0 736L2371.0 1020H2229.0L2095.0 792H2007.0V1020Z"/>
    <path fill="#4DA3FF" data-ch="k" d="M2482.0 1020V290H2607.0V686H2695.0L2826.0 470H2965.0L2802.0 736L2971.0 1020H2829.0L2695.0 792H2607.0V1020Z"/>
    <path fill="#D6DEE8" data-ch="l" d="M3389.0 1020Q3307.0 1020 3257.5 971.0Q3208.0 922 3208.0 842V403H3027.0V290H3333.0V839Q3333.0 870 3350.5 888.5Q3368.0 907 3398.0 907H3559.0V1020Z"/>
    <path fill="#D6DEE8" data-ch="i" d="M3676.0 1020V907H3864.0V583H3696.0V470H3989.0V907H4158.0V1020ZM3918.0 378Q3880.0 378 3858.0 358.5Q3836.0 339 3836.0 306Q3836.0 273 3858.0 253.5Q3880.0 234 3918.0 234Q3956.0 234 3978.0 253.5Q4000.0 273 4000.0 306Q4000.0 339 3978.0 358.5Q3956.0 378 3918.0 378Z"/>
    <path fill="#D6DEE8" data-ch="n" d="M4277.0 1020V470H4399.0V573Q4409.0 521 4448.0 490.5Q4487.0 460 4547.0 460Q4628.0 460 4676.5 514.0Q4725.0 568 4725.0 659V1020H4600.0V674Q4600.0 623 4573.5 595.5Q4547.0 568 4502.0 568Q4455.0 568 4428.5 596.0Q4402.0 624 4402.0 676V1020Z"/>
    <path fill="#D6DEE8" data-ch="g" d="M4952.0 1200V1096H5107.0Q5151.0 1096 5175.0 1072.5Q5199.0 1049 5199.0 1009V976L5201.0 890Q5184.0 936 5146.5 961.5Q5109.0 987 5055.0 987Q4971.0 987 4921.5 930.5Q4872.0 874 4872.0 777V670Q4872.0 574 4921.5 517.0Q4971.0 460 5055.0 460Q5109.0 460 5146.5 485.5Q5184.0 511 5201.0 558V470H5323.0V1012Q5323.0 1099 5265.5 1149.5Q5208.0 1200 5109.0 1200ZM5097.0 880Q5145.0 880 5171.5 851.5Q5198.0 823 5198.0 772V676Q5198.0 625 5171.5 596.5Q5145.0 568 5097.0 568Q5049.0 568 5023.0 595.5Q4997.0 623 4997.0 672V776Q4997.0 825 5023.0 852.5Q5049.0 880 5097.0 880Z"/>
  </g>
</svg>
